 <svg  version="1.0" xmlns="http://www.w3.org/2000/svg"  width="400.000000pt" height="400.000000pt" viewBox="0 0 400.000000 400.000000"  preserveAspectRatio="xMidYMid meet">  <g transform="translate(0.000000,400.000000) scale(0.050000,-0.050000)" fill="#e67e22" stroke="none"> <path d="M6532 6331 c-72 -72 -104 -158 -160 -431 -137 -657 -150 -712 -232 -920 -234 -594 -290 -680 -443 -680 -267 0 -416 -195 -417 -546 0 -388 141 -508 599 -512 l189 -2 103 110 103 111 56 -86 c156 -237 452 -285 680 -111 316 243 403 866 154 1103 -119 113 -439 189 -548 131 -56 -30 -43 58 40 262 86 210 204 634 226 805 10 79 32 197 48 261 39 151 39 359 0 433 -82 159 -276 194 -398 72z m287 -110 c30 -56 26 -254 -7 -317 -16 -30 -39 -143 -52 -251 -13 -108 -54 -292 -91 -410 -38 -117 -69 -235 -69 -263 0 -27 -41 -131 -90 -230 -50 -99 -90 -203 -90 -232 0 -29 -26 -85 -57 -124 -32 -40 -96 -165 -142 -277 -47 -113 -99 -226 -116 -252 -26 -39 -26 -55 -6 -94 30 -56 21 -319 -12 -352 -34 -34 -190 -29 -217 7 -15 21 -32 25 -51 13 -104 -66 -358 13 -397 123 -113 324 89 665 337 570 139 -53 148 -51 162 35 8 42 22 83 32 90 25 17 127 201 127 231 1 12 18 45 40 72 22 28 39 64 40 80 0 17 18 64 40 105 22 41 40 91 40 111 0 20 8 45 18 55 32 35 128 356 173 579 25 121 59 292 77 380 31 152 67 310 83 365 13 44 204 32 228 -14z m151 -1907 c178 -69 210 -126 210 -376 0 -108 -8 -201 -18 -207 -10 -6 -32 -52 -49 -102 -67 -195 -198 -289 -404 -289 -350 0 -400 263 -146 772 11 23 19 59 16 80 -20 188 114 230 391 122z"/> <path d="M5693 3806 c-19 -19 -16 -86 5 -86 38 0 63 54 35 77 -14 13 -33 17 -40 9z"/> <path d="M6825 3964 c-42 -49 -72 -111 -87 -183 -12 -61 -27 -121 -32 -135 -15 -39 55 -31 87 9 74 94 109 190 103 286 l-6 98 -65 -75z"/> <path d="M1270 6231 c-230 -84 -469 -611 -514 -1131 -25 -293 -49 -360 -130 -360 -361 0 -375 -557 -16 -611 l90 -14 0 -122 c1 -471 218 -746 441 -559 109 91 138 185 139 441 l0 225 105 1 c477 5 513 582 39 632 l-124 13 0 92 c0 103 69 537 101 635 48 145 128 125 303 -74 223 -255 412 -266 524 -31 164 346 -568 1006 -958 863z m370 -192 c50 -33 125 -89 167 -124 42 -36 85 -68 95 -72 10 -3 18 -19 18 -34 0 -16 22 -34 48 -40 28 -7 59 -37 73 -71 13 -32 30 -58 38 -58 23 0 61 -97 61 -154 0 -128 -156 -172 -249 -71 -122 133 -331 344 -331 333 0 -6 -30 7 -67 30 -84 52 -93 52 -93 2 0 -22 -7 -40 -16 -40 -31 0 -121 -231 -151 -390 -70 -363 -93 -526 -93 -643 l0 -122 212 -8 c234 -9 288 -38 288 -155 0 -123 -39 -142 -294 -142 l-232 0 15 -332 c16 -373 6 -408 -117 -408 -130 1 -153 61 -167 444 l-11 293 -132 13 c-180 18 -198 25 -230 87 -70 135 66 239 278 212 106 -13 110 -12 110 34 3 523 125 1062 297 1313 21 30 52 79 71 109 51 84 281 81 412 -6z"/> <path d="M2750 4952 c-412 -131 -569 -345 -570 -776 0 -263 9 -304 97 -441 113 -175 524 -237 773 -116 519 252 652 1057 211 1280 -151 76 -367 99 -511 53z m374 -161 c211 -64 276 -153 276 -376 -1 -294 -156 -540 -409 -646 -107 -45 -513 -41 -567 6 -256 220 -95 965 209 965 15 0 56 18 92 40 79 48 259 53 399 11z"/> <path d="M2827 4490 c-26 -30 -65 -50 -96 -50 -102 0 -135 -58 -138 -243 l-3 -167 113 -6 c242 -13 403 140 393 373 l-6 133 -110 5 c-96 5 -116 -1 -153 -45z m93 -188 c0 -40 -78 -102 -129 -102 -56 0 -33 72 34 105 85 42 95 42 95 -3z"/> <path d="M4330 4682 c-741 -189 -581 -1347 187 -1350 530 -2 824 743 445 1124 -142 143 -482 264 -632 226z m301 -195 c31 -20 88 -46 127 -57 47 -14 99 -55 156 -126 l86 -105 0 -172 c0 -423 -337 -642 -718 -467 -381 176 -422 749 -65 919 153 73 312 76 414 8z"/> <path d="M4341 4231 c-123 -68 -112 -240 24 -376 102 -102 185 -103 284 -4 105 104 105 229 1 229 -58 0 -75 10 -94 55 -48 112 -125 146 -215 96z"/> <path d="M2210 3475 c-303 -174 -169 -791 234 -1075 246 -174 765 -403 1066 -470 77 -18 192 -49 255 -71 519 -176 752 -40 977 572 107 291 106 367 -9 482 -188 187 -354 103 -505 -256 -109 -257 -142 -276 -352 -198 -58 22 -191 61 -296 89 -590 153 -917 364 -989 639 -70 272 -216 382 -381 288z m178 -127 c17 -6 36 -45 43 -85 43 -249 184 -503 281 -503 13 0 34 -13 47 -29 33 -39 198 -131 235 -131 17 0 54 -13 83 -29 131 -71 300 -133 460 -171 95 -23 232 -63 303 -89 72 -27 179 -52 239 -55 l110 -6 55 100 c30 55 87 183 127 285 74 189 105 225 198 225 110 0 172 -153 102 -252 -31 -45 -111 -271 -111 -314 0 -15 -19 -45 -42 -66 -23 -21 -63 -79 -89 -130 -76 -150 -341 -182 -619 -75 -55 21 -165 51 -244 67 -80 15 -201 51 -270 80 -69 29 -153 60 -186 69 -119 33 -483 220 -618 318 -362 264 -449 924 -104 791z"/> </g> </svg> 